<svg width="47" height="46" viewBox="0 0 47 46" fill="none" xmlns="http://www.w3.org/2000/svg">
<path d="M46.375 22.7812C46.375 35.3565 36.169 45.5625 23.5938 45.5625C11.0185 45.5625 0.8125 35.3565 0.8125 22.7812C0.8125 10.206 11.0185 0 23.5938 0C36.169 0 46.375 10.206 46.375 22.7812Z" fill="black"/>
<g clip-path="url(#clip0_316_2384)">
<path d="M38.7812 22.7812C38.7812 14.3934 31.9816 7.59375 23.5938 7.59375C15.2059 7.59375 8.40625 14.3934 8.40625 22.7812C8.40625 30.3617 13.9601 36.6449 21.2207 37.7842V27.1714H17.3645V22.7812H21.2207V19.4353C21.2207 15.6289 23.4881 13.5264 26.9572 13.5264C28.6184 13.5264 30.3569 13.823 30.3569 13.823V17.5605H28.4419C26.5553 17.5605 25.9668 18.7313 25.9668 19.9336V22.7812H30.179L29.5056 27.1714H25.9668V37.7842C33.2274 36.6449 38.7812 30.3617 38.7812 22.7812Z" fill="white"/>
</g>
<defs>
<clipPath id="clip0_316_2384">
<rect width="30.375" height="30.375" fill="white" transform="translate(8.40625 7.59375)"/>
</clipPath>
</defs>
</svg>
