<svg width="36" height="36" viewBox="0 0 36 36" fill="none" xmlns="http://www.w3.org/2000/svg">
<path d="M36 18C36 27.936 27.936 36 18 36C8.064 36 0 27.936 0 18C0 8.064 8.064 0 18 0C27.936 0 36 8.064 36 18Z" fill="black"/>
<path fill-rule="evenodd" clip-rule="evenodd" d="M18.5 9.89082C21.3055 9.89082 21.6377 9.90312 22.741 9.95234C23.7664 9.99746 24.3201 10.1697 24.6893 10.3133C25.1773 10.502 25.5301 10.7316 25.8951 11.0967C26.2643 11.4658 26.4898 11.8145 26.6785 12.3025C26.8221 12.6717 26.9943 13.2295 27.0395 14.2508C27.0887 15.3582 27.101 15.6904 27.101 18.4918C27.101 21.2973 27.0887 21.6295 27.0395 22.7328C26.9943 23.7582 26.8221 24.3119 26.6785 24.6811C26.4898 25.1691 26.2602 25.5219 25.8951 25.8869C25.526 26.2561 25.1773 26.4816 24.6893 26.6703C24.3201 26.8139 23.7623 26.9861 22.741 27.0312C21.6336 27.0805 21.3014 27.0928 18.5 27.0928C15.6945 27.0928 15.3623 27.0805 14.259 27.0312C13.2336 26.9861 12.6799 26.8139 12.3107 26.6703C11.8227 26.4816 11.4699 26.252 11.1049 25.8869C10.7357 25.5178 10.5102 25.1691 10.3215 24.6811C10.1779 24.3119 10.0057 23.7541 9.96055 22.7328C9.91133 21.6254 9.89902 21.2932 9.89902 18.4918C9.89902 15.6863 9.91133 15.3541 9.96055 14.2508C10.0057 13.2254 10.1779 12.6717 10.3215 12.3025C10.5102 11.8145 10.7398 11.4617 11.1049 11.0967C11.474 10.7275 11.8227 10.502 12.3107 10.3133C12.6799 10.1697 13.2377 9.99746 14.259 9.95234C15.3623 9.90312 15.6945 9.89082 18.5 9.89082ZM18.5 8C15.6494 8 15.2926 8.0123 14.1729 8.06152C13.0572 8.11074 12.2902 8.29121 11.6258 8.54961C10.9326 8.82031 10.3461 9.17715 9.76367 9.76367C9.17715 10.3461 8.82031 10.9326 8.54961 11.6217C8.29121 12.2902 8.11074 13.0531 8.06152 14.1687C8.0123 15.2926 8 15.6494 8 18.5C8 21.3506 8.0123 21.7074 8.06152 22.8271C8.11074 23.9428 8.29121 24.7098 8.54961 25.3742C8.82031 26.0674 9.17715 26.6539 9.76367 27.2363C10.3461 27.8188 10.9326 28.1797 11.6217 28.4463C12.2902 28.7047 13.0531 28.8852 14.1688 28.9344C15.2885 28.9836 15.6453 28.9959 18.4959 28.9959C21.3465 28.9959 21.7033 28.9836 22.823 28.9344C23.9387 28.8852 24.7057 28.7047 25.3701 28.4463C26.0592 28.1797 26.6457 27.8188 27.2281 27.2363C27.8105 26.6539 28.1715 26.0674 28.4381 25.3783C28.6965 24.7098 28.877 23.9469 28.9262 22.8313C28.9754 21.7115 28.9877 21.3547 28.9877 18.5041C28.9877 15.6535 28.9754 15.2967 28.9262 14.177C28.877 13.0613 28.6965 12.2943 28.4381 11.6299C28.1797 10.9326 27.8229 10.3461 27.2363 9.76367C26.6539 9.18125 26.0674 8.82031 25.3783 8.55371C24.7098 8.29531 23.9469 8.11484 22.8313 8.06563C21.7074 8.0123 21.3506 8 18.5 8ZM18.5 13.1064C15.5223 13.1064 13.1064 15.5223 13.1064 18.5C13.1064 21.4777 15.5223 23.8936 18.5 23.8936C21.4777 23.8936 23.8936 21.4777 23.8936 18.5C23.8936 15.5223 21.4777 13.1064 18.5 13.1064ZM18.5 21.9986C16.5682 21.9986 15.0014 20.4318 15.0014 18.5C15.0014 16.5682 16.5682 15.0014 18.5 15.0014C20.4318 15.0014 21.9986 16.5682 21.9986 18.5C21.9986 20.4318 20.4318 21.9986 18.5 21.9986ZM24.1068 14.1523C24.8 14.1523 25.366 13.5904 25.366 12.8931C25.366 12.2 24.8 11.6339 24.1068 11.6339C23.4137 11.6339 22.8477 12.1959 22.8477 12.8931C22.8477 13.5863 23.4096 14.1523 24.1068 14.1523Z" fill="white"/>
<path fill-rule="evenodd" clip-rule="evenodd" d="M18.5 9.89082C21.3055 9.89082 21.6377 9.90312 22.741 9.95234C23.7664 9.99746 24.3201 10.1697 24.6893 10.3133C25.1773 10.502 25.5301 10.7316 25.8951 11.0967C26.2643 11.4658 26.4898 11.8145 26.6785 12.3025C26.8221 12.6717 26.9943 13.2295 27.0395 14.2508C27.0887 15.3582 27.101 15.6904 27.101 18.4918C27.101 21.2973 27.0887 21.6295 27.0395 22.7328C26.9943 23.7582 26.8221 24.3119 26.6785 24.6811C26.4898 25.1691 26.2602 25.5219 25.8951 25.8869C25.526 26.2561 25.1773 26.4816 24.6893 26.6703C24.3201 26.8139 23.7623 26.9861 22.741 27.0312C21.6336 27.0805 21.3014 27.0928 18.5 27.0928C15.6945 27.0928 15.3623 27.0805 14.259 27.0312C13.2336 26.9861 12.6799 26.8139 12.3107 26.6703C11.8227 26.4816 11.4699 26.252 11.1049 25.8869C10.7357 25.5178 10.5102 25.1691 10.3215 24.6811C10.1779 24.3119 10.0057 23.7541 9.96055 22.7328C9.91133 21.6254 9.89902 21.2932 9.89902 18.4918C9.89902 15.6863 9.91133 15.3541 9.96055 14.2508C10.0057 13.2254 10.1779 12.6717 10.3215 12.3025C10.5102 11.8145 10.7398 11.4617 11.1049 11.0967C11.474 10.7275 11.8227 10.502 12.3107 10.3133C12.6799 10.1697 13.2377 9.99746 14.259 9.95234C15.3623 9.90312 15.6945 9.89082 18.5 9.89082ZM18.5 8C15.6494 8 15.2926 8.0123 14.1729 8.06152C13.0572 8.11074 12.2902 8.29121 11.6258 8.54961C10.9326 8.82031 10.3461 9.17715 9.76367 9.76367C9.17715 10.3461 8.82031 10.9326 8.54961 11.6217C8.29121 12.2902 8.11074 13.0531 8.06152 14.1687C8.0123 15.2926 8 15.6494 8 18.5C8 21.3506 8.0123 21.7074 8.06152 22.8271C8.11074 23.9428 8.29121 24.7098 8.54961 25.3742C8.82031 26.0674 9.17715 26.6539 9.76367 27.2363C10.3461 27.8188 10.9326 28.1797 11.6217 28.4463C12.2902 28.7047 13.0531 28.8852 14.1688 28.9344C15.2885 28.9836 15.6453 28.9959 18.4959 28.9959C21.3465 28.9959 21.7033 28.9836 22.823 28.9344C23.9387 28.8852 24.7057 28.7047 25.3701 28.4463C26.0592 28.1797 26.6457 27.8188 27.2281 27.2363C27.8105 26.6539 28.1715 26.0674 28.4381 25.3783C28.6965 24.7098 28.877 23.9469 28.9262 22.8313C28.9754 21.7115 28.9877 21.3547 28.9877 18.5041C28.9877 15.6535 28.9754 15.2967 28.9262 14.177C28.877 13.0613 28.6965 12.2943 28.4381 11.6299C28.1797 10.9326 27.8229 10.3461 27.2363 9.76367C26.6539 9.18125 26.0674 8.82031 25.3783 8.55371C24.7098 8.29531 23.9469 8.11484 22.8313 8.06563C21.7074 8.0123 21.3506 8 18.5 8ZM18.5 13.1064C15.5223 13.1064 13.1064 15.5223 13.1064 18.5C13.1064 21.4777 15.5223 23.8936 18.5 23.8936C21.4777 23.8936 23.8936 21.4777 23.8936 18.5C23.8936 15.5223 21.4777 13.1064 18.5 13.1064ZM18.5 21.9986C16.5682 21.9986 15.0014 20.4318 15.0014 18.5C15.0014 16.5682 16.5682 15.0014 18.5 15.0014C20.4318 15.0014 21.9986 16.5682 21.9986 18.5C21.9986 20.4318 20.4318 21.9986 18.5 21.9986ZM24.1068 14.1523C24.8 14.1523 25.366 13.5904 25.366 12.8931C25.366 12.2 24.8 11.6339 24.1068 11.6339C23.4137 11.6339 22.8477 12.1959 22.8477 12.8931C22.8477 13.5863 23.4096 14.1523 24.1068 14.1523Z" fill="white"/>
</svg>
