<svg width="47" height="46" viewBox="0 0 47 46" fill="none" xmlns="http://www.w3.org/2000/svg">
<path d="M46.1875 22.7812C46.1875 35.3565 35.9815 45.5625 23.4062 45.5625C10.831 45.5625 0.625 35.3565 0.625 22.7812C0.625 10.206 10.831 0 23.4062 0C35.9815 0 46.1875 10.206 46.1875 22.7812Z" fill="black"/>
<g clip-path="url(#clip0_316_2387)">
<path fill-rule="evenodd" clip-rule="evenodd" d="M24.0391 12.5181C27.5897 12.5181 28.0102 12.5336 29.4066 12.5959C30.7044 12.653 31.4052 12.8711 31.8723 13.0527C32.4901 13.2915 32.9365 13.5822 33.3985 14.0442C33.8657 14.5114 34.1512 14.9527 34.39 15.5704C34.5717 16.0376 34.7897 16.7436 34.8468 18.0361C34.9091 19.4377 34.9247 19.8582 34.9247 23.4037C34.9247 26.9544 34.9091 27.3748 34.8468 28.7712C34.7897 30.069 34.5717 30.7698 34.39 31.237C34.1512 31.8547 33.8605 32.3011 33.3985 32.7631C32.9313 33.2303 32.4901 33.5158 31.8723 33.7546C31.4052 33.9363 30.6992 34.1543 29.4066 34.2114C28.005 34.2737 27.5845 34.2893 24.0391 34.2893C20.4884 34.2893 20.0679 34.2737 18.6715 34.2114C17.3738 34.1543 16.673 33.9363 16.2058 33.7546C15.588 33.5158 15.1416 33.2251 14.6796 32.7631C14.2124 32.2959 13.9269 31.8547 13.6881 31.237C13.5064 30.7698 13.2884 30.0638 13.2313 28.7712C13.169 27.3696 13.1535 26.9492 13.1535 23.4037C13.1535 19.853 13.169 19.4325 13.2313 18.0361C13.2884 16.7384 13.5064 16.0376 13.6881 15.5704C13.9269 14.9527 14.2176 14.5062 14.6796 14.0442C15.1468 13.577 15.588 13.2915 16.2058 13.0527C16.673 12.8711 17.379 12.653 18.6715 12.5959C20.0679 12.5336 20.4884 12.5181 24.0391 12.5181ZM24.0391 10.125C20.4313 10.125 19.9797 10.1406 18.5625 10.2029C17.1506 10.2652 16.1798 10.4936 15.3389 10.8206C14.4616 11.1632 13.7193 11.6148 12.9821 12.3571C12.2398 13.0943 11.7882 13.8366 11.4456 14.7087C11.1186 15.5548 10.8902 16.5204 10.8279 17.9323C10.7656 19.3547 10.75 19.8063 10.75 23.4141C10.75 27.0218 10.7656 27.4735 10.8279 28.8906C10.8902 30.3026 11.1186 31.2733 11.4456 32.1142C11.7882 32.9915 12.2398 33.7339 12.9821 34.471C13.7193 35.2081 14.4616 35.6649 15.3337 36.0023C16.1798 36.3294 17.1454 36.5578 18.5573 36.6201C19.9745 36.6824 20.4261 36.6979 24.0339 36.6979C27.6416 36.6979 28.0933 36.6824 29.5104 36.6201C30.9224 36.5578 31.8931 36.3294 32.7341 36.0023C33.6062 35.6649 34.3485 35.2081 35.0856 34.471C35.8227 33.7339 36.2795 32.9915 36.617 32.1194C36.944 31.2733 37.1724 30.3078 37.2347 28.8958C37.297 27.4786 37.3126 27.027 37.3126 23.4193C37.3126 19.8115 37.297 19.3599 37.2347 17.9427C37.1724 16.5307 36.944 15.56 36.617 14.7191C36.2899 13.8366 35.8383 13.0943 35.096 12.3571C34.3589 11.62 33.6165 11.1632 32.7444 10.8258C31.8983 10.4988 30.9328 10.2703 29.5208 10.2081C28.0985 10.1406 27.6468 10.125 24.0391 10.125ZM24.0391 16.5878C20.2704 16.5878 17.2128 19.6454 17.2128 23.4141C17.2128 27.1828 20.2704 30.2403 24.0391 30.2403C27.8078 30.2403 30.8653 27.1828 30.8653 23.4141C30.8653 19.6454 27.8078 16.5878 24.0391 16.5878ZM24.0391 27.842C21.5941 27.842 19.6111 25.859 19.6111 23.4141C19.6111 20.9691 21.5941 18.9861 24.0391 18.9861C26.484 18.9861 28.467 20.9691 28.467 23.4141C28.467 25.859 26.484 27.842 24.0391 27.842ZM31.1352 17.9115C32.0125 17.9115 32.7289 17.2003 32.7289 16.3179C32.7289 15.4406 32.0125 14.7242 31.1352 14.7242C30.2579 14.7242 29.5416 15.4354 29.5416 16.3179C29.5416 17.1951 30.2527 17.9115 31.1352 17.9115Z" fill="white"/>
<path fill-rule="evenodd" clip-rule="evenodd" d="M24.0391 12.5181C27.5897 12.5181 28.0102 12.5336 29.4066 12.5959C30.7044 12.653 31.4052 12.8711 31.8723 13.0527C32.4901 13.2915 32.9365 13.5822 33.3985 14.0442C33.8657 14.5114 34.1512 14.9527 34.39 15.5704C34.5717 16.0376 34.7897 16.7436 34.8468 18.0361C34.9091 19.4377 34.9247 19.8582 34.9247 23.4037C34.9247 26.9544 34.9091 27.3748 34.8468 28.7712C34.7897 30.069 34.5717 30.7698 34.39 31.237C34.1512 31.8547 33.8605 32.3011 33.3985 32.7631C32.9313 33.2303 32.4901 33.5158 31.8723 33.7546C31.4052 33.9363 30.6992 34.1543 29.4066 34.2114C28.005 34.2737 27.5845 34.2893 24.0391 34.2893C20.4884 34.2893 20.0679 34.2737 18.6715 34.2114C17.3738 34.1543 16.673 33.9363 16.2058 33.7546C15.588 33.5158 15.1416 33.2251 14.6796 32.7631C14.2124 32.2959 13.9269 31.8547 13.6881 31.237C13.5064 30.7698 13.2884 30.0638 13.2313 28.7712C13.169 27.3696 13.1535 26.9492 13.1535 23.4037C13.1535 19.853 13.169 19.4325 13.2313 18.0361C13.2884 16.7384 13.5064 16.0376 13.6881 15.5704C13.9269 14.9527 14.2176 14.5062 14.6796 14.0442C15.1468 13.577 15.588 13.2915 16.2058 13.0527C16.673 12.8711 17.379 12.653 18.6715 12.5959C20.0679 12.5336 20.4884 12.5181 24.0391 12.5181ZM24.0391 10.125C20.4313 10.125 19.9797 10.1406 18.5625 10.2029C17.1506 10.2652 16.1798 10.4936 15.3389 10.8206C14.4616 11.1632 13.7193 11.6148 12.9821 12.3571C12.2398 13.0943 11.7882 13.8366 11.4456 14.7087C11.1186 15.5548 10.8902 16.5204 10.8279 17.9323C10.7656 19.3547 10.75 19.8063 10.75 23.4141C10.75 27.0218 10.7656 27.4735 10.8279 28.8906C10.8902 30.3026 11.1186 31.2733 11.4456 32.1142C11.7882 32.9915 12.2398 33.7339 12.9821 34.471C13.7193 35.2081 14.4616 35.6649 15.3337 36.0023C16.1798 36.3294 17.1454 36.5578 18.5573 36.6201C19.9745 36.6824 20.4261 36.6979 24.0339 36.6979C27.6416 36.6979 28.0933 36.6824 29.5104 36.6201C30.9224 36.5578 31.8931 36.3294 32.7341 36.0023C33.6062 35.6649 34.3485 35.2081 35.0856 34.471C35.8227 33.7339 36.2795 32.9915 36.617 32.1194C36.944 31.2733 37.1724 30.3078 37.2347 28.8958C37.297 27.4786 37.3126 27.027 37.3126 23.4193C37.3126 19.8115 37.297 19.3599 37.2347 17.9427C37.1724 16.5307 36.944 15.56 36.617 14.7191C36.2899 13.8366 35.8383 13.0943 35.096 12.3571C34.3589 11.62 33.6165 11.1632 32.7444 10.8258C31.8983 10.4988 30.9328 10.2703 29.5208 10.2081C28.0985 10.1406 27.6468 10.125 24.0391 10.125ZM24.0391 16.5878C20.2704 16.5878 17.2128 19.6454 17.2128 23.4141C17.2128 27.1828 20.2704 30.2403 24.0391 30.2403C27.8078 30.2403 30.8653 27.1828 30.8653 23.4141C30.8653 19.6454 27.8078 16.5878 24.0391 16.5878ZM24.0391 27.842C21.5941 27.842 19.6111 25.859 19.6111 23.4141C19.6111 20.9691 21.5941 18.9861 24.0391 18.9861C26.484 18.9861 28.467 20.9691 28.467 23.4141C28.467 25.859 26.484 27.842 24.0391 27.842ZM31.1352 17.9115C32.0125 17.9115 32.7289 17.2003 32.7289 16.3179C32.7289 15.4406 32.0125 14.7242 31.1352 14.7242C30.2579 14.7242 29.5416 15.4354 29.5416 16.3179C29.5416 17.1951 30.2527 17.9115 31.1352 17.9115Z" fill="white"/>
</g>
<defs>
<clipPath id="clip0_316_2387">
<rect width="26.5781" height="26.5781" fill="white" transform="translate(10.75 10.125)"/>
</clipPath>
</defs>
</svg>
