<svg width="46" height="46" viewBox="0 0 46 46" fill="none" xmlns="http://www.w3.org/2000/svg">
<path d="M46 22.7812C46 35.3565 35.794 45.5625 23.2188 45.5625C10.6435 45.5625 0.4375 35.3565 0.4375 22.7812C0.4375 10.206 10.6435 0 23.2188 0C35.794 0 46 10.206 46 22.7812Z" fill="#101010"/>
<g clip-path="url(#clip0_316_2390)">
<path d="M35.7969 14.7075L31.7865 33.6206C31.4839 34.9555 30.6949 35.2877 29.5736 34.6588L23.463 30.156L20.5145 32.9918C20.1882 33.3181 19.9153 33.591 19.2864 33.591L19.7255 27.3677L31.0508 17.1339C31.5432 16.6949 30.944 16.4516 30.2855 16.8907L16.2845 25.7065L10.257 23.82C8.94588 23.4106 8.92215 22.5088 10.5299 21.88L34.1061 12.7972C35.1977 12.3878 36.1529 13.0404 35.7969 14.7075Z" fill="white"/>
</g>
<defs>
<clipPath id="clip0_316_2390">
<rect width="26.5781" height="30.375" fill="white" transform="translate(9.29688 8.85938)"/>
</clipPath>
</defs>
</svg>
