<svg width="46" height="46" viewBox="0 0 46 46" fill="none" xmlns="http://www.w3.org/2000/svg">
<circle cx="22.7812" cy="22.7812" r="22.7812" fill="#101010"/>
<path d="M32.8356 17.7029C32.8517 17.9244 32.8517 18.1459 32.8517 18.3674C32.8517 25.1226 27.6318 32.9062 18.0914 32.9062C15.1522 32.9062 12.4218 32.0677 10.125 30.6123C10.5426 30.6598 10.9441 30.6756 11.3778 30.6756C13.803 30.6756 16.0355 29.8688 17.8183 28.4924C15.5376 28.4449 13.6263 26.9736 12.9678 24.9486C13.2891 24.9961 13.6103 25.0277 13.9476 25.0277C14.4134 25.0277 14.8792 24.9644 15.3128 24.8537C12.9357 24.3791 11.1529 22.3225 11.1529 19.8387V19.7754C11.8435 20.1551 12.6466 20.3924 13.4978 20.424C12.1005 19.5064 11.185 17.9402 11.185 16.1683C11.185 15.2191 11.4419 14.349 11.8917 13.5896C14.4454 16.6904 18.2841 18.7154 22.5885 18.9369C22.5082 18.5572 22.46 18.1617 22.46 17.7662C22.46 14.9502 24.7728 12.6562 27.6478 12.6562C29.1415 12.6562 30.4906 13.2732 31.4383 14.2699C32.6107 14.0484 33.735 13.6213 34.7308 13.0359C34.3453 14.2225 33.5262 15.2192 32.4501 15.8519C33.4941 15.7413 34.506 15.4564 35.4375 15.061C34.7309 16.0734 33.8475 16.9751 32.8356 17.7029Z" fill="white"/>
</svg>
