<svg width="467" height="294" viewBox="0 0 467 294" fill="none" xmlns="http://www.w3.org/2000/svg">
<g clip-path="url(#clip0_316_2361)">
<path d="M361.021 74.5884C361.872 76.3119 362.745 78.0137 363.574 79.7373C366.367 85.5407 369.138 91.3441 371.931 97.1475C374.135 101.686 376.382 106.202 378.586 110.762C380.768 115.321 382.906 119.903 385.088 124.463C386.899 128.259 388.754 132.033 390.587 135.808C392.769 140.28 394.972 144.753 397.154 149.226C399.271 153.567 401.344 157.952 403.417 162.316C405.751 167.225 408.064 172.134 410.421 177.021C412.406 181.144 414.414 185.268 416.421 189.391C419.105 194.911 421.81 200.453 424.472 205.972C427.069 211.318 429.665 216.685 432.218 222.052C433.746 225.259 435.229 228.51 436.757 231.717C437.979 234.248 439.266 236.735 440.488 239.244C442.364 243.127 444.154 247.011 446.03 250.894C449.063 257.178 452.14 263.439 455.173 269.723C457.289 274.108 459.384 278.493 461.5 282.879C462.962 285.911 464.402 288.944 465.864 291.998C465.995 292.282 466.061 292.609 466.191 293.002C465.864 293.046 465.58 293.111 465.319 293.111C459.384 293.111 453.471 293.111 447.536 293.111C446.99 293.111 446.663 293.024 446.401 292.413C444.874 289.162 443.259 285.955 441.666 282.726C439.091 277.446 436.517 272.166 433.964 266.865C431.433 261.607 428.945 256.327 426.414 251.047C425.083 248.255 423.643 245.527 422.312 242.735C420.741 239.506 419.236 236.255 417.708 233.004C416.552 230.582 415.374 228.183 414.217 225.761C412.275 221.768 410.355 217.776 408.435 213.761C405.904 208.525 403.351 203.289 400.82 198.053C398.463 193.144 396.151 188.213 393.772 183.304C392.267 180.163 390.652 177.086 389.147 173.945C387.925 171.457 386.768 168.927 385.59 166.418C384.063 163.21 382.513 160.003 380.986 156.796C379.24 153.153 377.517 149.509 375.771 145.866C374.767 143.771 373.742 141.677 372.716 139.604C370.993 136.092 369.291 132.579 367.589 129.066C366.52 126.863 365.472 124.637 364.425 122.434C363.53 120.558 362.614 118.659 361.697 116.805C361.501 116.39 361.239 116.02 360.934 115.452C359.821 117.743 358.817 119.881 357.792 121.997C356.592 124.506 355.37 126.994 354.17 129.503C352.293 133.364 350.395 137.248 348.54 141.109C347.035 144.251 345.551 147.393 344.045 150.535C342.125 154.505 340.227 158.476 338.285 162.447C335.732 167.705 333.158 172.963 330.605 178.243C327.834 183.981 325.062 189.719 322.291 195.457C319.52 201.194 316.749 206.911 314 212.649C311.316 218.256 308.698 223.885 305.992 229.47C304.814 231.935 303.505 234.357 302.305 236.822C299.512 242.56 296.741 248.298 293.991 254.036C291.635 258.967 289.344 263.941 286.965 268.85C284.456 274.064 281.86 279.257 279.329 284.45C278.041 287.111 276.754 289.773 275.488 292.435C275.357 292.696 275.314 292.98 275.139 293.569C274.79 293.176 274.485 292.936 274.332 292.631C272.39 288.638 270.47 284.646 268.55 280.631C267.35 278.122 266.15 275.635 264.95 273.126C263.029 269.156 261.131 265.185 259.189 261.214C257.662 258.051 256.091 254.909 254.563 251.745C252.054 246.553 249.567 241.338 247.079 236.146C244.439 230.67 241.843 225.172 239.181 219.696C236.017 213.172 232.809 206.671 229.667 200.147C227.136 194.933 224.671 189.675 222.14 184.461C219.914 179.857 217.667 175.254 215.419 170.65C213.477 166.658 211.535 162.643 209.615 158.651C207.608 154.484 205.644 150.295 203.637 146.127C201.411 141.524 199.12 136.942 196.894 132.317C194.712 127.757 192.596 123.197 190.436 118.616C190.261 118.245 190.021 117.874 189.65 117.241C189.083 118.31 188.537 119.205 188.079 120.165C186.312 123.83 184.544 127.495 182.799 131.161C180.944 135.066 179.133 138.993 177.279 142.899C175.577 146.455 173.809 149.989 172.085 153.567C170.558 156.731 169.053 159.916 167.569 163.101C166.347 165.676 165.169 168.25 163.947 170.825C162.027 174.839 160.107 178.832 158.186 182.846C156.637 186.053 155.044 189.217 153.495 192.424C152.142 195.238 150.811 198.096 149.48 200.933C148.499 203.027 147.517 205.122 146.535 207.194C146.382 207.522 146.142 207.783 145.815 208.242C145.4 207.543 145.029 207.02 144.767 206.431C142.738 202.154 140.731 197.878 138.702 193.624C138.003 192.184 137.283 190.744 136.541 189.326C136.149 188.562 136.018 187.842 136.41 187.013C138.636 182.453 140.862 177.894 143.065 173.334C145.837 167.552 148.608 161.771 151.357 155.989C152.644 153.305 153.953 150.622 155.219 147.917C157.248 143.64 159.212 139.342 161.241 135.066C162.769 131.859 164.361 128.695 165.889 125.488C167.94 121.168 169.925 116.783 171.998 112.463C173.831 108.623 175.773 104.805 177.628 100.966C179.33 97.453 180.944 93.8967 182.624 90.3841C183.824 87.8533 185.09 85.3443 186.312 82.8135C187.054 81.2645 187.752 79.7155 188.516 78.1882C188.734 77.7519 189.105 77.4028 189.41 77.0101C189.781 77.381 190.283 77.6864 190.501 78.1228C192.574 82.2463 194.625 86.3916 196.632 90.5587C198.814 95.0531 200.931 99.5911 203.113 104.107C205.011 108.013 206.931 111.896 208.83 115.801C210.662 119.619 212.452 123.459 214.285 127.255C215.877 130.55 217.536 133.823 219.128 137.117C220.961 140.935 222.729 144.775 224.562 148.571C227.114 153.851 229.711 159.109 232.264 164.389C234.751 169.516 237.195 174.643 239.661 179.77C242.563 185.791 245.487 191.791 248.389 197.813C250.81 202.853 253.232 207.892 255.654 212.932C258.142 218.103 260.607 223.274 263.095 228.423C264.993 232.35 266.935 236.277 268.833 240.226C270.666 244.044 272.455 247.862 274.288 251.68C274.441 251.985 274.725 252.225 275.008 252.531C276.318 249.782 277.539 247.207 278.761 244.655C280.049 241.993 281.336 239.353 282.623 236.691C285.678 230.43 288.733 224.168 291.766 217.907C293.904 213.478 296.042 209.071 298.181 204.642C299.926 201.02 301.628 197.376 303.352 193.755C305.01 190.329 306.712 186.926 308.37 183.501C310.487 179.115 312.603 174.752 314.698 170.367C317.36 164.781 320 159.196 322.684 153.611C324.997 148.767 327.375 143.968 329.688 139.124C331.608 135.153 333.463 131.161 335.383 127.168C337.347 123.088 339.354 119.03 341.34 114.972C343.391 110.762 345.442 106.529 347.493 102.318C349.588 97.9984 351.682 93.7004 353.755 89.3805C355.872 85.0171 357.966 80.6754 360.061 76.312C360.323 75.7665 360.541 75.2211 360.759 74.6538C360.803 74.632 360.912 74.6102 361.021 74.5884Z" fill="white"/>
<path d="M0.113281 80.3694C0.918981 80.3694 1.37627 80.3694 1.83356 80.3694C21.5405 80.3912 41.2475 80.413 60.9545 80.413C61.7384 80.413 62.2175 80.6092 62.5442 81.307C65.1572 86.7585 67.7921 92.1882 70.4052 97.6396C72.4956 101.979 74.6079 106.34 76.6983 110.68C79.0501 115.629 81.3583 120.601 83.7319 125.529C85.9095 130.043 88.1959 134.492 90.3735 139.005C92.8777 144.217 95.2948 149.472 97.8207 154.684C100.325 159.895 102.916 165.085 105.442 170.297C107.925 175.443 110.364 180.633 112.868 185.801C115.394 191.056 117.963 196.268 120.489 201.523C123.037 206.822 125.498 212.142 128.045 217.441C129.722 220.93 131.486 224.375 133.119 227.864C133.359 228.366 133.315 229.151 133.076 229.652C131.573 232.923 130.005 236.151 128.437 239.4C127.109 242.191 125.759 244.96 124.409 247.751C122.514 251.654 120.62 255.558 118.747 259.461C117.201 262.666 115.677 265.872 114.131 269.077C112.563 272.348 111.017 275.619 109.427 278.89C108.077 281.681 106.705 284.429 105.355 287.22C104.593 288.79 103.874 290.382 103.134 291.974C103.003 292.257 102.873 292.54 102.742 292.846C102.59 292.759 102.459 292.671 102.307 292.584C101.131 290.12 99.9548 287.656 98.7789 285.214C96.9062 281.332 95.0335 277.473 93.1608 273.591C91.6147 270.408 90.0904 267.202 88.5443 263.997C87.3031 261.445 85.9966 258.916 84.7771 256.343C83.231 253.094 81.7721 249.823 80.2042 246.596C78.4622 242.932 76.633 239.312 74.8692 235.671C72.9312 231.637 71.0149 227.603 69.0769 223.569C66.5291 218.291 63.9378 213.014 61.39 207.737C59.0383 202.831 56.73 197.903 54.3783 192.997C52.854 189.835 51.2426 186.717 49.7183 183.577C47.8673 179.739 46.0817 175.879 44.2308 172.041C41.0516 165.434 37.8723 158.849 34.6713 152.263C32.0364 146.834 29.4016 141.404 26.7885 135.974C24.3061 130.806 21.8672 125.617 19.3848 120.449C17.3378 116.196 15.2256 111.966 13.1787 107.692C11.3278 103.854 9.56393 99.9947 7.73477 96.1568C5.73141 91.9701 3.68449 87.8052 1.65935 83.6185C1.15851 82.5936 0.701225 81.6123 0.113281 80.3694ZM102.481 252.374C102.807 251.676 103.025 251.218 103.243 250.782C104.854 247.468 106.466 244.153 108.099 240.817C109.819 237.306 111.518 233.774 113.281 230.307C113.869 229.173 113.891 228.17 113.194 227.145C113.085 226.992 112.998 226.839 112.911 226.687C110.407 221.41 107.903 216.133 105.377 210.856C103.526 206.996 101.566 203.158 99.7152 199.277C98.0385 195.788 96.4489 192.255 94.7722 188.766C92.5293 184.056 90.221 179.39 87.9564 174.702C86.1272 170.929 84.3416 167.113 82.5124 163.341C81.4672 161.16 80.3349 159.023 79.2896 156.843C77.5476 153.245 75.8273 149.603 74.107 146.005C72.9094 143.497 71.6899 140.99 70.4705 138.482C68.8809 135.189 67.2913 131.897 65.7016 128.604C64.5475 126.227 63.3716 123.872 62.2393 121.495C60.6932 118.246 59.2125 114.975 57.6664 111.748C55.6195 107.409 53.529 103.091 51.4386 98.7735C51.1555 98.1848 50.7853 97.8795 50.0449 97.8795C43.1202 97.9231 36.1738 97.9013 29.2491 97.9013C28.9225 97.9013 28.5741 97.9667 28.2039 97.9885C29.2491 100.235 30.1855 102.393 31.209 104.487C33.0817 108.39 35.0197 112.271 36.9142 116.175C38.4385 119.336 39.9192 122.542 41.4435 125.704C43.3162 129.542 45.2543 133.336 47.1052 137.174C48.9561 141.033 50.7417 144.958 52.5927 148.818C54.6396 153.114 56.7518 157.388 58.8423 161.662C60.7368 165.587 62.6313 169.512 64.5475 173.437C65.7016 175.835 66.8993 178.212 68.0316 180.633C69.5777 183.882 71.0367 187.153 72.6045 190.402C73.8022 192.888 75.1087 195.33 76.3064 197.838C77.8742 201.065 79.355 204.336 80.901 207.563C82.6213 211.139 84.3852 214.672 86.1054 218.226C87.8257 221.802 89.546 225.378 91.2663 228.955C93.0954 232.749 94.9681 236.543 96.7973 240.359C98.6482 244.284 100.477 248.166 102.481 252.374Z" fill="white"/>
<path d="M240.065 0.875608C260.255 0.765917 276.684 17.395 276.576 37.9292C276.467 57.9587 260.472 74.6975 239.587 74.5878C220.289 74.5001 203.012 58.1781 203.49 36.7006C203.903 17.5925 219.811 0.590412 240.065 0.875608ZM222.071 37.6659C221.854 47.7794 230.264 55.8307 239.718 55.8746C250.128 55.9404 258.016 47.6697 258.016 37.7098C257.995 27.6621 250.149 19.8302 240.348 19.545C230.329 19.2159 221.789 27.9034 222.071 37.6659Z" fill="white"/>
<path d="M186.086 166.372C187.859 170.053 189.502 173.494 191.166 176.914C192.568 179.789 194.013 182.642 195.327 185.539C195.568 186.083 195.59 186.911 195.349 187.455C193.509 191.441 191.604 195.405 189.677 199.369C187.706 203.464 185.67 207.515 183.677 211.61C181.421 216.271 179.188 220.954 176.932 225.637C175.925 227.728 174.917 229.797 173.888 231.866C172.487 234.719 171.041 237.572 169.662 240.447C168.282 243.279 166.968 246.154 165.588 249.007C163.683 252.949 161.756 256.892 159.829 260.812C157.42 265.713 154.989 270.613 152.624 275.536C150.763 279.391 148.945 283.246 147.106 287.123C146.274 288.844 145.464 290.586 144.588 292.285C144.434 292.568 143.952 292.83 143.624 292.83C137.427 292.851 131.207 292.851 125.01 292.83C124.901 292.83 124.813 292.764 124.594 292.699C125.295 291.152 125.974 289.606 126.696 288.081C128.076 285.228 129.499 282.418 130.901 279.587C131.996 277.365 133.091 275.122 134.186 272.879C136.354 268.457 138.522 264.014 140.668 259.592C142.617 255.563 144.588 251.555 146.537 247.526C148.726 242.952 150.872 238.335 153.062 233.761C154.398 230.973 155.865 228.25 157.223 225.462C159.106 221.607 160.946 217.709 162.829 213.832C165.72 207.885 168.654 201.961 171.523 196.015C173.735 191.441 175.837 186.824 178.049 182.25C179.91 178.416 181.837 174.627 183.721 170.815C184.312 169.639 184.816 168.419 185.407 167.243C185.538 166.96 185.757 166.764 186.086 166.372Z" fill="white"/>
<path d="M421.32 292.759C420.731 292.781 420.381 292.825 420.01 292.825C414.266 292.825 408.5 292.803 402.756 292.846C401.882 292.846 401.489 292.498 401.139 291.78C399.261 287.864 397.339 283.992 395.439 280.076C393.604 276.269 391.813 272.44 389.957 268.655C387.532 263.673 385.086 258.735 382.684 253.753C380.499 249.25 378.403 244.703 376.219 240.178C374.34 236.306 372.375 232.477 370.518 228.605C368.159 223.732 365.888 218.815 363.551 213.942C361.716 210.091 359.794 206.284 357.938 202.455C355.863 198.17 354.05 193.753 351.691 189.642C350.315 187.249 351.757 185.769 352.521 184.007C353.679 181.332 354.989 178.743 356.256 176.11C357.282 174 358.375 171.912 359.423 169.802C359.663 169.301 359.86 168.779 360.122 168.279C360.209 168.083 360.449 167.778 360.537 167.822C360.755 167.887 361.017 168.061 361.126 168.279C362.612 171.303 364.053 174.348 365.538 177.372C367.766 181.919 370.038 186.444 372.244 190.991C374.209 194.993 376.131 199.04 378.075 203.064C380.696 208.547 383.317 214.029 385.96 219.489C387.707 223.101 389.52 226.69 391.245 230.301C393.429 234.826 395.57 239.395 397.732 243.92C398.933 246.422 400.2 248.88 401.423 251.382C403.782 256.298 406.119 261.237 408.5 266.153C410.029 269.308 411.645 272.44 413.174 275.595C415.03 279.424 416.843 283.274 418.678 287.125C419.398 288.626 420.141 290.127 420.862 291.628C421.015 291.911 421.124 292.237 421.32 292.759Z" fill="white"/>
</g>
<defs>
<clipPath id="clip0_316_2361">
<rect width="466.078" height="292.697" fill="white" transform="translate(0.113281 0.87207)"/>
</clipPath>
</defs>
</svg>
