<svg width="36" height="23" viewBox="0 0 36 23" fill="none" xmlns="http://www.w3.org/2000/svg">
<g clip-path="url(#clip0_41_2291)">
<path d="M27.6022 6.04102C27.6661 6.17056 27.7316 6.29847 27.7939 6.42802C28.0036 6.86422 28.2117 7.30043 28.4214 7.73663C28.5869 8.07772 28.7557 8.41717 28.9212 8.7599C29.085 9.10263 29.2456 9.447 29.4095 9.78973C29.5455 10.0751 29.6847 10.3588 29.8224 10.6425C29.9862 10.9786 30.1517 11.3148 30.3156 11.651C30.4745 11.9773 30.6302 12.3069 30.7858 12.6349C30.9612 13.0039 31.1348 13.3728 31.3118 13.7402C31.4609 14.0501 31.6116 14.36 31.7624 14.67C31.9639 15.0848 32.1671 15.5014 32.367 15.9162C32.562 16.318 32.757 16.7214 32.9487 17.1248C33.0634 17.3659 33.1748 17.6102 33.2895 17.8513C33.3813 18.0415 33.4779 18.2284 33.5697 18.417C33.7106 18.7089 33.845 19.0008 33.9859 19.2927C34.2136 19.765 34.4447 20.2356 34.6724 20.7079C34.8314 21.0375 34.9887 21.3671 35.1476 21.6967C35.2574 21.9247 35.3655 22.1526 35.4753 22.3822C35.4851 22.4035 35.4901 22.4281 35.4999 22.4576C35.4753 22.4609 35.454 22.4658 35.4343 22.4658C34.9887 22.4658 34.5446 22.4658 34.0989 22.4658C34.058 22.4658 34.0334 22.4593 34.0137 22.4134C33.899 22.169 33.7778 21.928 33.6582 21.6853C33.4648 21.2884 33.2715 20.8916 33.0798 20.4931C32.8897 20.0979 32.7029 19.701 32.5128 19.3042C32.4129 19.0943 32.3047 18.8893 32.2048 18.6794C32.0868 18.4367 31.9738 18.1924 31.8591 17.948C31.7722 17.766 31.6837 17.5856 31.5969 17.4036C31.4511 17.1035 31.3069 16.8034 31.1627 16.5017C30.9726 16.1081 30.7809 15.7145 30.5908 15.321C30.4139 14.952 30.2402 14.5814 30.0616 14.2124C29.9485 13.9763 29.8273 13.7451 29.7142 13.5089C29.6225 13.322 29.5356 13.1318 29.4471 12.9432C29.3324 12.7021 29.2161 12.4611 29.1014 12.22C28.9703 11.9461 28.8409 11.6723 28.7098 11.3984C28.6344 11.241 28.5574 11.0836 28.4804 10.9278C28.351 10.6638 28.2232 10.3998 28.0954 10.1357C28.0151 9.97012 27.9364 9.80285 27.8578 9.63722C27.7906 9.4962 27.7218 9.35353 27.653 9.21414C27.6382 9.18298 27.6185 9.15511 27.5956 9.11247C27.512 9.28466 27.4367 9.44536 27.3597 9.60443C27.2695 9.79301 27.1778 9.97996 27.0877 10.1685C26.9467 10.4588 26.8042 10.7507 26.6649 11.0409C26.5519 11.2771 26.4404 11.5132 26.3274 11.7494C26.1832 12.0478 26.0406 12.3463 25.8948 12.6447C25.7031 13.0399 25.5097 13.4351 25.318 13.832C25.1099 14.2633 24.9019 14.6945 24.6938 15.1258C24.4857 15.5571 24.2776 15.9868 24.0711 16.418C23.8696 16.8395 23.673 17.2626 23.4698 17.6824C23.3813 17.8677 23.283 18.0497 23.1929 18.235C22.9831 18.6663 22.775 19.0976 22.5686 19.5289C22.3916 19.8995 22.2196 20.2733 22.041 20.6423C21.8525 21.0342 21.6576 21.4245 21.4675 21.8148C21.3708 22.0149 21.2741 22.2149 21.1791 22.415C21.1693 22.4347 21.166 22.456 21.1529 22.5003C21.1267 22.4708 21.1037 22.4527 21.0923 22.4298C20.9464 22.1297 20.8022 21.8296 20.6581 21.5278C20.5679 21.3393 20.4778 21.1523 20.3877 20.9637C20.2435 20.6653 20.101 20.3668 19.9551 20.0684C19.8404 19.8306 19.7224 19.5944 19.6078 19.3567C19.4193 18.9664 19.2325 18.5745 19.0457 18.1842C18.8475 17.7726 18.6525 17.3593 18.4526 16.9477C18.215 16.4574 17.9741 15.9687 17.7382 15.4784C17.5481 15.0865 17.363 14.6913 17.1729 14.2993C17.0058 13.9533 16.837 13.6073 16.6682 13.2613C16.5224 12.9612 16.3766 12.6595 16.2324 12.3594C16.0816 12.0462 15.9342 11.7313 15.7834 11.4181C15.6163 11.0721 15.4442 10.7277 15.2771 10.3801C15.1133 10.0374 14.9543 9.69462 14.7921 9.35025C14.779 9.32237 14.761 9.29449 14.7331 9.24694C14.6905 9.32729 14.6495 9.39453 14.6151 9.46668C14.4824 9.74218 14.3497 10.0177 14.2186 10.2932C14.0793 10.5867 13.9433 10.8819 13.8041 11.1754C13.6763 11.4427 13.5435 11.7084 13.4141 11.9773C13.2994 12.2151 13.1863 12.4545 13.0749 12.6939C12.9832 12.8874 12.8947 13.0809 12.8029 13.2744C12.6587 13.5762 12.5145 13.8763 12.3703 14.178C12.254 14.4191 12.1344 14.6568 12.0181 14.8979C11.9165 15.1094 11.8165 15.3243 11.7166 15.5374C11.6428 15.6949 11.5691 15.8523 11.4954 16.0081C11.4839 16.0327 11.4659 16.0524 11.4413 16.0868C11.4102 16.0343 11.3823 15.995 11.3627 15.9507C11.2103 15.6293 11.0595 15.3079 10.9071 14.9881C10.8547 14.8799 10.8006 14.7716 10.7449 14.665C10.7154 14.6076 10.7056 14.5535 10.7351 14.4912C10.9022 14.1485 11.0694 13.8057 11.2348 13.463C11.4429 13.0285 11.651 12.5939 11.8575 12.1593C11.9542 11.9576 12.0525 11.7559 12.1475 11.5526C12.2999 11.2312 12.4474 10.9081 12.5997 10.5867C12.7144 10.3456 12.8341 10.1079 12.9488 9.86681C13.1028 9.54211 13.2519 9.2125 13.4075 8.88781C13.5452 8.5992 13.691 8.31222 13.8303 8.0236C13.9581 7.75959 14.0793 7.49229 14.2055 7.22827C14.2956 7.03805 14.3907 6.84947 14.4824 6.65924C14.5381 6.54281 14.5906 6.42638 14.6479 6.31159C14.6643 6.2788 14.6922 6.25256 14.7151 6.22304C14.7429 6.25092 14.7806 6.27388 14.797 6.30667C14.9527 6.61661 15.1067 6.92818 15.2574 7.24139C15.4213 7.5792 15.5802 7.92029 15.7441 8.25974C15.8866 8.55328 16.0308 8.84517 16.1734 9.13871C16.311 9.42568 16.4454 9.7143 16.583 9.99963C16.7026 10.2473 16.8272 10.4932 16.9468 10.7409C17.0844 11.0278 17.2171 11.3164 17.3548 11.6018C17.5465 11.9986 17.7415 12.3938 17.9332 12.7907C18.12 13.176 18.3035 13.5614 18.4886 13.9468C18.7066 14.3994 18.9261 14.8503 19.144 15.3029C19.3259 15.6817 19.5078 16.0606 19.6897 16.4394C19.8765 16.828 20.0616 17.2167 20.2484 17.6037C20.391 17.8988 20.5368 18.194 20.6794 18.4908C20.817 18.7778 20.9513 19.0648 21.089 19.3517C21.1005 19.3747 21.1218 19.3927 21.1431 19.4157C21.2414 19.2091 21.3331 19.0156 21.4249 18.8237C21.5216 18.6237 21.6182 18.4252 21.7149 18.2252C21.9443 17.7545 22.1737 17.2839 22.4015 16.8132C22.562 16.4804 22.7226 16.1491 22.8832 15.8162C23.0143 15.544 23.1421 15.2701 23.2715 14.9979C23.396 14.7405 23.5238 14.4846 23.6484 14.2272C23.8073 13.8976 23.9663 13.5696 24.1236 13.24C24.3235 12.8202 24.5217 12.4004 24.7233 11.9806C24.8969 11.6165 25.0755 11.2558 25.2492 10.8917C25.3934 10.5933 25.5327 10.2932 25.6769 9.99307C25.8243 9.68642 25.9751 9.38141 26.1242 9.07639C26.2782 8.7599 26.4322 8.44177 26.5863 8.12528C26.7436 7.80058 26.9009 7.47753 27.0565 7.15284C27.2155 6.82487 27.3728 6.49854 27.5301 6.17056C27.5497 6.12957 27.5661 6.08857 27.5825 6.04594C27.5858 6.0443 27.594 6.04266 27.6022 6.04102Z" fill="white"/>
<path d="M0.5 6.4751C0.560504 6.4751 0.594844 6.4751 0.629184 6.4751C2.10907 6.47674 3.58896 6.47838 5.06885 6.47838C5.12772 6.47838 5.1637 6.49313 5.18823 6.54557C5.38446 6.95532 5.58232 7.36343 5.77855 7.77318C5.93553 8.09934 6.09415 8.42714 6.25113 8.7533C6.42774 9.12535 6.60107 9.49904 6.77931 9.86946C6.94284 10.2087 7.11454 10.5431 7.27806 10.8824C7.46611 11.2741 7.64763 11.6691 7.83731 12.0608C8.02537 12.4525 8.21996 12.8426 8.40965 13.2343C8.59606 13.6211 8.77921 14.0112 8.96726 14.3996C9.15695 14.7946 9.34991 15.1864 9.5396 15.5814C9.73092 15.9796 9.9157 16.3795 10.107 16.7778C10.2329 17.0401 10.3654 17.299 10.488 17.5613C10.506 17.599 10.5028 17.658 10.4848 17.6957C10.3719 17.9415 10.2542 18.1841 10.1365 18.4283C10.0367 18.6381 9.93532 18.8462 9.83394 19.056C9.69167 19.3494 9.54941 19.6428 9.40878 19.9362C9.29267 20.1771 9.17821 20.418 9.06211 20.659C8.94437 20.9048 8.82827 21.1507 8.7089 21.3965C8.60751 21.6063 8.50449 21.8128 8.40311 22.0226C8.34587 22.1406 8.29191 22.2603 8.23631 22.3799C8.2265 22.4012 8.21669 22.4225 8.20688 22.4455C8.19543 22.4389 8.18562 22.4324 8.17417 22.4258C8.08587 22.2406 7.99757 22.0554 7.90926 21.8718C7.76863 21.5801 7.628 21.29 7.48737 20.9982C7.37127 20.7589 7.2568 20.518 7.1407 20.2771C7.04749 20.0853 6.94938 19.8952 6.85781 19.7018C6.7417 19.4576 6.63214 19.2117 6.51441 18.9692C6.38359 18.6938 6.24623 18.4217 6.11377 18.148C5.96824 17.8448 5.82434 17.5416 5.6788 17.2384C5.48748 16.8417 5.29288 16.4451 5.10156 16.0485C4.92495 15.6797 4.75162 15.3093 4.57501 14.9405C4.46055 14.7029 4.33954 14.4685 4.22507 14.2325C4.08608 13.944 3.95199 13.6539 3.81299 13.3654C3.57425 12.8688 3.3355 12.3738 3.09512 11.8789C2.89726 11.4708 2.69939 11.0626 2.50317 10.6545C2.31675 10.2661 2.1336 9.87601 1.94719 9.48757C1.79347 9.16797 1.63486 8.85 1.48114 8.52876C1.34215 8.2403 1.20969 7.95019 1.07233 7.66173C0.921891 7.34704 0.768179 7.03399 0.616102 6.71931C0.578491 6.64228 0.544151 6.56852 0.5 6.4751ZM8.18725 19.4035C8.21178 19.351 8.22813 19.3166 8.24449 19.2838C8.36549 19.0347 8.4865 18.7856 8.60914 18.5348C8.73833 18.2709 8.86588 18.0054 8.99833 17.7448C9.04248 17.6596 9.04412 17.5842 8.99179 17.5072C8.98361 17.4957 8.97707 17.4842 8.97053 17.4728C8.78248 17.0761 8.59443 16.6795 8.40474 16.2828C8.26575 15.9927 8.11857 15.7043 7.97958 15.4125C7.85367 15.1503 7.73429 14.8848 7.60838 14.6225C7.43995 14.2685 7.26661 13.9178 7.09655 13.5654C6.95919 13.2818 6.8251 12.995 6.68774 12.7115C6.60925 12.5476 6.52422 12.387 6.44573 12.2231C6.31491 11.9526 6.18572 11.6789 6.05654 11.4085C5.9666 11.22 5.87503 11.0315 5.78345 10.843C5.66408 10.5955 5.54471 10.348 5.42534 10.1006C5.33867 9.9219 5.25037 9.74489 5.16533 9.56624C5.04923 9.32203 4.93804 9.07618 4.82193 8.83361C4.66822 8.50745 4.51124 8.18293 4.35426 7.85841C4.333 7.81416 4.3052 7.79121 4.2496 7.79121C3.7296 7.79449 3.20795 7.79285 2.68795 7.79285C2.66342 7.79285 2.63726 7.79777 2.60946 7.79941C2.68795 7.96822 2.75826 8.13048 2.83512 8.28783C2.97575 8.58121 3.12129 8.87295 3.26355 9.16633C3.37802 9.40398 3.48922 9.64491 3.60368 9.88257C3.74431 10.171 3.88985 10.4562 4.02884 10.7447C4.16784 11.0348 4.30193 11.3298 4.44092 11.6199C4.59464 11.9428 4.75325 12.264 4.91024 12.5853C5.0525 12.8803 5.19477 13.1753 5.33867 13.4703C5.42534 13.6506 5.51527 13.8293 5.60031 14.0112C5.71641 14.2554 5.82597 14.5013 5.94371 14.7455C6.03365 14.9323 6.13176 15.1159 6.2217 15.3044C6.33943 15.5469 6.45063 15.7928 6.56673 16.0354C6.69592 16.3042 6.82837 16.5697 6.95755 16.8368C7.08674 17.1056 7.21592 17.3744 7.34511 17.6432C7.48247 17.9284 7.6231 18.2136 7.76046 18.5004C7.89945 18.7954 8.03681 19.0872 8.18725 19.4035Z" fill="white"/>
<path d="M18.5193 0.500266C20.0354 0.492021 21.2692 1.74192 21.2611 3.28532C21.2529 4.79081 20.0518 6.04895 18.4834 6.0407C17.0342 6.03411 15.7368 4.80729 15.7727 3.19298C15.8037 1.75676 16.9983 0.47883 18.5193 0.500266ZM17.168 3.26554C17.1517 4.0257 17.7833 4.63086 18.4932 4.63416C19.2749 4.6391 19.8674 4.01745 19.8674 3.26883C19.8657 2.51362 19.2766 1.92495 18.5405 1.90351C17.7882 1.87878 17.1468 2.53176 17.168 3.26554Z" fill="white"/>
<path d="M14.4654 12.9395C14.5986 13.2161 14.7219 13.4748 14.8469 13.7318C14.9521 13.9479 15.0607 14.1624 15.1593 14.3801C15.1774 14.421 15.1791 14.4832 15.161 14.5242C15.0228 14.8237 14.8798 15.1217 14.7351 15.4196C14.587 15.7274 14.4341 16.0319 14.2845 16.3397C14.1151 16.69 13.9473 17.042 13.778 17.394C13.7023 17.5511 13.6267 17.7067 13.5494 17.8622C13.4441 18.0766 13.3356 18.2911 13.232 18.5072C13.1284 18.72 13.0297 18.9361 12.9261 19.1506C12.7831 19.4469 12.6383 19.7432 12.4936 20.0379C12.3127 20.4062 12.1302 20.7746 11.9526 21.1445C11.8128 21.4343 11.6763 21.7241 11.5382 22.0155C11.4757 22.1448 11.4148 22.2758 11.3491 22.4035C11.3376 22.4248 11.3014 22.4444 11.2767 22.4444C10.8113 22.446 10.3443 22.446 9.8789 22.4444C9.87068 22.4444 9.8641 22.4395 9.84766 22.4346C9.90028 22.3183 9.95126 22.2021 10.0055 22.0875C10.1091 21.8731 10.216 21.6619 10.3213 21.449C10.4035 21.2821 10.4857 21.1134 10.5679 20.9448C10.7307 20.6125 10.8935 20.2785 11.0547 19.9462C11.2011 19.6433 11.3491 19.3421 11.4954 19.0392C11.6599 18.6955 11.821 18.3484 11.9855 18.0046C12.0858 17.7951 12.196 17.5904 12.2979 17.3809C12.4394 17.0911 12.5775 16.7981 12.7189 16.5067C12.936 16.0597 13.1563 15.6145 13.3718 15.1675C13.5379 14.8237 13.6957 14.4767 13.8618 14.1329C14.0016 13.8448 14.1463 13.5599 14.2878 13.2734C14.3322 13.185 14.37 13.0933 14.4144 13.0049C14.4242 12.9837 14.4407 12.9689 14.4654 12.9395Z" fill="white"/>
<path d="M32.1301 22.4393C32.0859 22.441 32.0596 22.4442 32.0317 22.4442C31.6004 22.4442 31.1674 22.4426 30.736 22.4459C30.6704 22.4459 30.6409 22.4197 30.6146 22.3658C30.4736 22.0714 30.3293 21.7804 30.1866 21.486C30.0488 21.1999 29.9143 20.9121 29.7749 20.6276C29.5928 20.2531 29.4091 19.882 29.2287 19.5075C29.0647 19.169 28.9073 18.8273 28.7432 18.4872C28.6022 18.1961 28.4546 17.9083 28.3152 17.6173C28.138 17.251 27.9674 16.8815 27.792 16.5152C27.6542 16.2258 27.5098 15.9396 27.3704 15.6518C27.2146 15.3297 27.0785 14.9978 26.9014 14.6887C26.798 14.5088 26.9063 14.3977 26.9637 14.2652C27.0506 14.0641 27.149 13.8695 27.2441 13.6716C27.3212 13.513 27.4032 13.3561 27.482 13.1975C27.5 13.1598 27.5148 13.1206 27.5344 13.083C27.541 13.0683 27.5591 13.0454 27.5656 13.0487C27.582 13.0536 27.6017 13.0666 27.6099 13.083C27.7214 13.3103 27.8297 13.5392 27.9412 13.7665C28.1085 14.1082 28.2791 14.4483 28.4447 14.7901C28.5923 15.091 28.7367 15.3951 28.8827 15.6976C29.0795 16.1097 29.2763 16.5217 29.4747 16.9321C29.606 17.2036 29.7421 17.4734 29.8717 17.7448C30.0357 18.0849 30.1964 18.4283 30.3588 18.7684C30.449 18.9565 30.5441 19.1412 30.636 19.3293C30.8131 19.6988 30.9886 20.07 31.1674 20.4395C31.2822 20.6766 31.4036 20.9121 31.5184 21.1492C31.6578 21.437 31.7939 21.7264 31.9317 22.0158C31.9858 22.1287 32.0416 22.2415 32.0957 22.3543C32.1072 22.3756 32.1154 22.4001 32.1301 22.4393Z" fill="white"/>
</g>
<defs>
<clipPath id="clip0_41_2291">
<rect width="35" height="22" fill="white" transform="translate(0.5 0.5)"/>
</clipPath>
</defs>
</svg>
