<svg width="184" height="117" viewBox="0 0 184 117" fill="none" xmlns="http://www.w3.org/2000/svg">
<g clip-path="url(#clip0_284_2482)">
<path d="M142.535 29.6206C142.87 30.3015 143.214 30.9737 143.541 31.6546C144.641 33.9471 145.732 36.2397 146.833 38.5322C147.701 40.3249 148.586 42.1089 149.454 43.9102C150.313 45.7115 151.156 47.5214 152.015 49.3227C152.729 50.8223 153.459 52.3133 154.181 53.8043C155.041 55.5711 155.909 57.3379 156.768 59.1048C157.602 60.8199 158.418 62.5522 159.235 64.2759C160.155 66.2151 161.066 68.1543 161.994 70.0848C162.776 71.7137 163.567 73.3426 164.357 74.9716C165.415 77.1521 166.48 79.3412 167.529 81.5217C168.552 83.6332 169.575 85.7534 170.58 87.8736C171.182 89.1405 171.766 90.4247 172.368 91.6916C172.849 92.6913 173.356 93.6739 173.838 94.665C174.577 96.1991 175.282 97.7332 176.021 99.2673C177.215 101.749 178.427 104.223 179.622 106.705C180.456 108.437 181.281 110.17 182.115 111.902C182.69 113.1 183.258 114.298 183.834 115.505C183.885 115.617 183.911 115.746 183.962 115.901C183.834 115.918 183.722 115.944 183.619 115.944C181.281 115.944 178.952 115.944 176.614 115.944C176.399 115.944 176.27 115.91 176.167 115.668C175.565 114.384 174.929 113.117 174.302 111.842C173.288 109.756 172.273 107.67 171.268 105.576C170.271 103.499 169.291 101.413 168.294 99.3276C167.77 98.2245 167.202 97.1471 166.678 96.044C166.059 94.7684 165.466 93.4843 164.865 92.2001C164.409 91.2434 163.945 90.2954 163.489 89.3387C162.724 87.7615 161.968 86.1843 161.212 84.5985C160.215 82.53 159.209 80.4616 158.212 78.3931C157.284 76.4539 156.373 74.5061 155.436 72.567C154.843 71.3259 154.207 70.1107 153.614 68.8696C153.133 67.8871 152.677 66.8873 152.213 65.8962C151.611 64.6293 151.001 63.3623 150.399 62.0954C149.712 60.6561 149.033 59.2168 148.345 57.7775C147.95 56.9501 147.546 56.1227 147.142 55.304C146.463 53.9164 145.793 52.5288 145.122 51.1412C144.701 50.2707 144.288 49.3916 143.876 48.5211C143.523 47.7799 143.162 47.0301 142.801 46.2976C142.724 46.1338 142.621 45.9873 142.501 45.7632C142.062 46.6681 141.667 47.5128 141.263 48.3488C140.79 49.3399 140.309 50.3224 139.836 51.3136C139.097 52.8391 138.349 54.3732 137.619 55.8986C137.026 57.1397 136.441 58.3808 135.848 59.6219C135.092 61.1905 134.344 62.759 133.579 64.3276C132.574 66.4047 131.559 68.4818 130.554 70.5675C129.462 72.8341 128.371 75.1008 127.279 77.3675C126.188 79.6342 125.096 81.8923 124.013 84.159C122.956 86.3739 121.925 88.5975 120.859 90.8039C120.395 91.7778 119.879 92.7344 119.406 93.7083C118.306 95.975 117.215 98.2417 116.132 100.508C115.203 102.456 114.301 104.421 113.364 106.36C112.376 108.42 111.353 110.471 110.356 112.523C109.849 113.574 109.342 114.626 108.843 115.677C108.792 115.781 108.774 115.893 108.706 116.125C108.568 115.97 108.448 115.875 108.388 115.755C107.623 114.177 106.866 112.6 106.11 111.014C105.637 110.023 105.164 109.041 104.692 108.05C103.935 106.481 103.188 104.912 102.423 103.344C101.821 102.094 101.202 100.853 100.601 99.6034C99.6122 97.5522 98.6324 95.4924 97.6525 93.4412C96.6125 91.2779 95.5898 89.106 94.5412 86.9428C93.2949 84.3658 92.0315 81.7975 90.7938 79.2205C89.7968 77.1607 88.8256 75.0836 87.8286 73.0238C86.9519 71.2052 86.0666 69.3867 85.1813 67.5682C84.4164 65.991 83.6515 64.4052 82.8951 62.828C82.1044 61.1818 81.3308 59.5271 80.5401 57.8809C79.6634 56.0624 78.761 54.2525 77.8843 52.4254C77.0248 50.6241 76.1911 48.8228 75.3402 47.0129C75.2714 46.8664 75.1769 46.7199 75.0308 46.4699C74.8073 46.8922 74.5924 47.2456 74.4119 47.6248C73.7158 49.0727 73.0196 50.5207 72.332 51.9686C71.6014 53.5113 70.888 55.0626 70.1575 56.6054C69.4871 58.0102 68.7909 59.4064 68.1119 60.8199C67.5102 62.0695 66.9172 63.3279 66.3327 64.5862C65.8514 65.6032 65.3873 66.6202 64.906 67.6371C64.1496 69.223 63.3933 70.8002 62.6369 72.386C62.0267 73.6529 61.3993 74.9026 60.789 76.1695C60.2562 77.2813 59.7319 78.4104 59.2076 79.5308C58.8208 80.3582 58.434 81.1855 58.0473 82.0043C57.9871 82.1336 57.8926 82.237 57.7636 82.418C57.6003 82.1422 57.4542 81.9354 57.3511 81.7027C56.5518 80.0134 55.761 78.3242 54.9617 76.6436C54.6867 76.0747 54.403 75.5059 54.1108 74.9457C53.9561 74.6441 53.9045 74.3596 54.0592 74.0321C54.9359 72.2308 55.8126 70.4296 56.6807 68.6283C57.7722 66.3444 58.8638 64.0604 59.9467 61.7765C60.4538 60.7164 60.9695 59.6563 61.468 58.5876C62.2674 56.8984 63.0409 55.2005 63.8402 53.5113C64.4419 52.2444 65.0693 50.9947 65.6709 49.7277C66.4789 48.0213 67.261 46.2889 68.0775 44.5825C68.7995 43.0656 69.5644 41.5573 70.295 40.0405C70.9654 38.6529 71.6014 37.248 72.2632 35.8605C72.7359 34.8607 73.2344 33.8696 73.7158 32.8698C74.008 32.2579 74.283 31.646 74.5838 31.0427C74.6698 30.8703 74.8159 30.7324 74.9362 30.5773C75.0823 30.7238 75.28 30.8444 75.366 31.0168C76.1825 32.6457 76.9904 34.2833 77.7811 35.9294C78.6406 37.7048 79.4743 39.4975 80.3338 41.2815C81.0816 42.8243 81.8379 44.3584 82.5857 45.9011C83.3077 47.4093 84.0124 48.9262 84.7344 50.4258C85.3618 51.7273 86.015 53.02 86.6425 54.3214C87.3644 55.8297 88.0606 57.3466 88.7826 58.8462C89.7882 60.9319 90.811 63.009 91.8166 65.0947C92.7964 67.12 93.759 69.1454 94.7303 71.1708C95.8734 73.5495 97.0251 75.9196 98.1682 78.2983C99.1223 80.2892 100.076 82.2801 101.03 84.271C102.01 86.3136 102.981 88.3562 103.961 90.3902C104.709 91.9415 105.474 93.4929 106.222 95.0528C106.944 96.5611 107.648 98.0693 108.37 99.5776C108.431 99.6982 108.542 99.7931 108.654 99.9137C109.17 98.8278 109.651 97.8108 110.132 96.8024C110.639 95.7509 111.147 94.7081 111.654 93.6566C112.857 91.1831 114.06 88.7096 115.255 86.236C116.097 84.4865 116.939 82.7455 117.782 80.9959C118.469 79.5653 119.14 78.126 119.819 76.6953C120.472 75.3422 121.142 73.9977 121.796 72.6445C122.629 70.9122 123.463 69.1885 124.288 67.4562C125.337 65.2498 126.377 63.0434 127.434 60.8371C128.345 58.9238 129.282 57.0277 130.193 55.1144C130.949 53.5458 131.68 51.9686 132.436 50.3914C133.21 48.7797 134 47.1766 134.782 45.5736C135.59 43.9102 136.398 42.2382 137.206 40.5748C138.031 38.8683 138.856 37.1705 139.673 35.464C140.507 33.7403 141.332 32.0252 142.157 30.3015C142.26 30.086 142.346 29.8705 142.432 29.6465C142.449 29.6378 142.492 29.6292 142.535 29.6206Z" fill="white"/>
<path d="M0.370605 31.9043C0.687977 31.9043 0.868107 31.9043 1.04824 31.9043C8.81097 31.9129 16.5737 31.9215 24.3364 31.9215C24.6452 31.9215 24.8339 31.9991 24.9626 32.2747C25.9919 34.4282 27.0298 36.5731 28.0591 38.7266C28.8826 40.4408 29.7146 42.1636 30.538 43.8778C31.4644 45.8332 32.3736 47.7972 33.3086 49.744C34.1664 51.5271 35.067 53.2843 35.9248 55.0674C36.9112 57.1262 37.8633 59.2022 38.8583 61.2609C39.8447 63.3197 40.8655 65.3698 41.8605 67.4286C42.8383 69.4615 43.799 71.5116 44.7854 73.5532C45.7804 75.6292 46.7926 77.6879 47.7876 79.7639C48.7912 81.8571 49.7605 83.9589 50.764 86.0521C51.4245 87.4304 52.1193 88.7914 52.7626 90.1697C52.857 90.3678 52.8398 90.6779 52.7455 90.876C52.1536 92.1681 51.536 93.443 50.9184 94.7265C50.3952 95.8291 49.8634 96.923 49.3316 98.0257C48.5853 99.5676 47.8391 101.109 47.1014 102.651C46.4924 103.918 45.892 105.184 45.2829 106.45C44.6654 107.742 44.0563 109.034 43.4302 110.326C42.8984 111.429 42.358 112.514 41.8262 113.617C41.526 114.237 41.2429 114.866 40.9513 115.495C40.8998 115.607 40.8483 115.719 40.7969 115.839C40.7368 115.805 40.6853 115.771 40.6253 115.736C40.1621 114.763 39.6989 113.789 39.2357 112.825C38.4981 111.291 37.7604 109.767 37.0227 108.233C36.4137 106.976 35.8133 105.709 35.2043 104.443C34.7153 103.435 34.2007 102.436 33.7203 101.42C33.1113 100.136 32.5366 98.844 31.919 97.5691C31.2328 96.122 30.5123 94.692 29.8175 93.2535C29.0541 91.6599 28.2993 90.0663 27.5359 88.4727C26.5323 86.3881 25.5116 84.3035 24.508 82.2189C23.5816 80.2807 22.6724 78.334 21.746 76.3958C21.1456 75.1468 20.5108 73.915 19.9104 72.6745C19.1813 71.1585 18.4779 69.6338 17.7488 68.1177C16.4965 65.5077 15.2442 62.9062 13.9833 60.3048C12.9454 58.1599 11.9075 56.015 10.8782 53.8701C9.90032 51.8286 8.93963 49.7784 7.96179 47.7369C7.15549 46.0572 6.32346 44.386 5.51717 42.6977C4.78807 41.1816 4.09329 39.6569 3.37277 38.1409C2.58363 36.487 1.77733 34.8417 0.979615 33.1878C0.782331 32.7829 0.602201 32.3953 0.370605 31.9043ZM40.6939 99.8518C40.8226 99.5762 40.9084 99.3953 40.9941 99.223C41.6289 97.9137 42.2636 96.6043 42.9069 95.2864C43.5846 93.8995 44.2536 92.5041 44.9484 91.1344C45.18 90.6865 45.1886 90.2902 44.9141 89.8854C44.8712 89.8251 44.8369 89.7648 44.8026 89.7045C43.8162 87.6199 42.8297 85.5353 41.8347 83.4507C41.1056 81.926 40.3337 80.4099 39.6046 78.8766C38.9441 77.4984 38.3179 76.1029 37.6575 74.7247C36.774 72.864 35.8647 71.0206 34.9727 69.1686C34.2521 67.6784 33.5488 66.1709 32.8283 64.6807C32.4165 63.8193 31.9705 62.9751 31.5588 62.1137C30.8726 60.6924 30.1949 59.2539 29.5173 57.8326C29.0455 56.8419 28.5652 55.8513 28.0848 54.8607C27.4587 53.56 26.8325 52.2593 26.2064 50.9585C25.7517 50.0196 25.2885 49.0893 24.8425 48.1504C24.2335 46.8669 23.6502 45.5748 23.0412 44.2999C22.2349 42.5857 21.4115 40.8801 20.588 39.1745C20.4765 38.942 20.3307 38.8214 20.0391 38.8214C17.3114 38.8386 14.5751 38.83 11.8474 38.83C11.7188 38.83 11.5815 38.8558 11.4357 38.8644C11.8474 39.7517 12.2163 40.6045 12.6194 41.4314C13.3571 42.9733 14.1205 44.5066 14.8668 46.0485C15.4672 47.2976 16.0505 48.5638 16.6509 49.8129C17.3886 51.329 18.152 52.8278 18.8811 54.3439C19.6102 55.8686 20.3135 57.4191 21.0426 58.9438C21.8489 60.6407 22.681 62.3291 23.5044 64.0174C24.2507 65.568 24.9969 67.1185 25.7517 68.669C26.2064 69.6166 26.6781 70.5555 27.1242 71.5116C27.7332 72.7951 28.3079 74.0872 28.9255 75.3707C29.3972 76.3527 29.9119 77.3175 30.3836 78.3081C31.0012 79.583 31.5845 80.8751 32.1935 82.15C32.8712 83.5627 33.5659 84.9582 34.2436 86.3622C34.9212 87.7749 35.5988 89.1877 36.2765 90.6004C36.997 92.0992 37.7346 93.598 38.4552 95.1055C39.1843 96.656 39.9048 98.1893 40.6939 99.8518Z" fill="white"/>
<path d="M94.8897 0.501397C102.842 0.458066 109.314 7.02712 109.271 15.1388C109.229 23.0511 102.928 29.6635 94.7014 29.6202C87.0996 29.5855 80.294 23.1378 80.4823 14.6535C80.645 7.10512 86.9113 0.388735 94.8897 0.501397ZM87.8016 15.0348C87.716 19.0299 91.0289 22.2105 94.7527 22.2278C98.8532 22.2538 101.961 18.9866 101.961 15.0521C101.952 11.0829 98.8618 7.98908 95.001 7.87642C91.0546 7.74642 87.6903 11.1783 87.8016 15.0348Z" fill="white"/>
<path d="M73.6263 65.8779C74.3251 67.332 74.972 68.6914 75.6276 70.0423C76.1797 71.178 76.749 72.3051 77.2666 73.4495C77.3614 73.6646 77.3701 73.9915 77.2752 74.2066C76.5506 75.7812 75.8001 77.3471 75.041 78.913C74.2647 80.5306 73.4624 82.1309 72.6775 83.7485C71.789 85.5897 70.9091 87.4396 70.0206 89.2895C69.6238 90.1155 69.227 90.9328 68.8216 91.7502C68.2695 92.8774 67.7002 94.0045 67.1568 95.1402C66.6133 96.2587 66.0958 97.3945 65.5523 98.5216C64.8019 100.079 64.0428 101.636 63.2837 103.185C62.3348 105.121 61.3773 107.057 60.4457 109.001C59.7125 110.524 58.9965 112.047 58.2719 113.579C57.9441 114.258 57.625 114.947 57.2799 115.618C57.2195 115.73 57.0298 115.833 56.9004 115.833C54.4592 115.841 52.0094 115.841 49.5682 115.833C49.5251 115.833 49.4906 115.807 49.4043 115.781C49.6803 115.17 49.9477 114.559 50.2324 113.957C50.7758 112.83 51.3365 111.72 51.8886 110.602C52.3199 109.724 52.7512 108.838 53.1825 107.952C54.0365 106.205 54.8905 104.45 55.7358 102.703C56.5036 101.111 57.2799 99.5283 58.0476 97.9365C58.9102 96.1297 59.7556 94.3056 60.6182 92.4988C61.1444 91.3975 61.7223 90.322 62.2572 89.2206C62.999 87.6977 63.7236 86.1576 64.4654 84.6261C65.6041 82.2772 66.76 79.9369 67.89 77.588C68.7612 75.7812 69.5893 73.9571 70.4606 72.1503C71.1938 70.636 71.9529 69.1389 72.6947 67.6332C72.9276 67.1685 73.126 66.6867 73.3589 66.2221C73.4107 66.1102 73.497 66.0328 73.6263 65.8779Z" fill="white"/>
<path d="M166.288 115.805C166.055 115.813 165.918 115.831 165.771 115.831C163.509 115.831 161.237 115.822 158.975 115.839C158.631 115.839 158.476 115.702 158.338 115.418C157.598 113.871 156.841 112.341 156.093 110.795C155.37 109.291 154.664 107.778 153.933 106.283C152.978 104.315 152.015 102.364 151.068 100.396C150.208 98.6171 149.382 96.821 148.522 95.0335C147.782 93.5038 147.007 91.9913 146.276 90.4616C145.347 88.5366 144.452 86.5943 143.532 84.6693C142.809 83.1482 142.052 81.6443 141.321 80.1318C140.503 78.4388 139.789 76.6942 138.86 75.07C138.318 74.1247 138.886 73.5403 139.187 72.8442C139.643 71.7872 140.159 70.7645 140.658 69.7246C141.063 68.891 141.493 68.066 141.906 67.2324C142 67.0348 142.078 66.8285 142.181 66.6309C142.215 66.5535 142.31 66.4332 142.344 66.4504C142.43 66.4762 142.534 66.5449 142.577 66.6309C143.162 67.8254 143.73 69.0285 144.315 70.2231C145.192 72.0192 146.087 73.8067 146.956 75.6028C147.73 77.1841 148.487 78.7825 149.253 80.3724C150.285 82.5381 151.318 84.7037 152.359 86.8608C153.047 88.2873 153.761 89.7053 154.441 91.1319C155.301 92.9194 156.144 94.7241 156.996 96.5116C157.469 97.4999 157.968 98.471 158.45 99.4593C159.379 101.402 160.3 103.352 161.237 105.295C161.84 106.541 162.476 107.778 163.079 109.024C163.81 110.537 164.524 112.058 165.247 113.579C165.53 114.172 165.823 114.765 166.107 115.358C166.167 115.47 166.21 115.599 166.288 115.805Z" fill="white"/>
</g>
<defs>
<clipPath id="clip0_284_2482">
<rect width="183.592" height="115.625" fill="white" transform="translate(0.370605 0.5)"/>
</clipPath>
</defs>
</svg>
