<svg width="90" height="75" viewBox="0 0 90 75" fill="none" xmlns="http://www.w3.org/2000/svg">
<g clip-path="url(#clip0_38_371)">
<g filter="url(#filter0_dd_38_371)">
<g filter="url(#filter1_bd_38_371)">
<path d="M24.5014 23.8788C24.7623 20.8632 26.9732 18.3772 29.9377 17.766L36.932 16.3238C42.4542 15.1852 48.0639 14.5226 53.6995 14.3434L60.8373 14.1163C63.8626 14.0201 66.5918 15.9226 67.5481 18.7944C69.3177 24.1084 69.9815 29.7282 69.4986 35.3082C69.2377 38.3238 67.0268 40.8098 64.0623 41.421L57.068 42.8632C51.5458 44.0018 45.9361 44.6644 40.3005 44.8436L33.1627 45.0707C30.1374 45.1669 27.4082 43.2644 26.4519 40.3926C24.6823 35.0786 24.0185 29.4588 24.5014 23.8788Z" fill="url(#paint0_linear_38_371)"/>
</g>
</g>
<g filter="url(#filter2_ddd_38_371)">
<path d="M32.3891 16.9636L22.4007 33H17.0858L13.512 16.9636H19.056L21.0491 26.3105L26.8451 16.9636H32.3891ZM36.3635 16.9636H41.77L38.5627 33H33.1562L36.3635 16.9636ZM54.9338 16.9636C57.072 16.9636 58.7291 17.4295 59.9051 18.3611C61.0811 19.2927 61.6691 20.5985 61.6691 22.2785C61.6691 23.6225 61.3331 24.8062 60.6611 25.8295C60.0043 26.8527 59.0574 27.6469 57.8203 28.212C56.5985 28.7771 55.1781 29.0596 53.5592 29.0596H50.7872L50.0083 33H44.6018L47.8091 16.9636H54.9338ZM53.8341 24.8902C54.5825 24.8902 55.1629 24.7069 55.5752 24.3404C55.9876 23.9585 56.1938 23.4316 56.1938 22.7596C56.1938 21.6753 55.5218 21.1331 54.1778 21.1331H52.368L51.612 24.8902H53.8341Z" fill="#D9D9D9"/>
<path d="M32.3891 16.9636L33.4694 17.6365L34.6812 15.6909H32.3891V16.9636ZM22.4007 33V34.2727H23.1074L23.481 33.6729L22.4007 33ZM17.0858 33L15.8436 33.2768L16.0655 34.2727H17.0858V33ZM13.512 16.9636V15.6909H11.9244L12.2697 17.2405L13.512 16.9636ZM19.056 16.9636L20.3007 16.6982L20.086 15.6909H19.056V16.9636ZM21.0491 26.3105L19.8043 26.576L20.4639 29.6692L22.1307 26.9813L21.0491 26.3105ZM26.8451 16.9636V15.6909H26.1367L25.7634 16.2929L26.8451 16.9636ZM31.3088 16.2908L21.3204 32.3271L23.481 33.6729L33.4694 17.6365L31.3088 16.2908ZM22.4007 31.7273H17.0858V34.2727H22.4007V31.7273ZM18.3281 32.7232L14.7543 16.6868L12.2697 17.2405L15.8436 33.2768L18.3281 32.7232ZM13.512 18.2364H19.056V15.6909H13.512V18.2364ZM17.8113 17.2291L19.8043 26.576L22.2938 26.0451L20.3007 16.6982L17.8113 17.2291ZM22.1307 26.9813L27.9267 17.6344L25.7634 16.2929L19.9674 25.6398L22.1307 26.9813ZM26.8451 18.2364H32.3891V15.6909H26.8451V18.2364ZM36.3635 16.9636V15.6909H35.3201L35.1154 16.714L36.3635 16.9636ZM41.77 16.9636L43.018 17.2132L43.3225 15.6909H41.77V16.9636ZM38.5627 33V34.2727H39.6061L39.8107 33.2496L38.5627 33ZM33.1562 33L31.9082 32.7504L31.6037 34.2727H33.1562V33ZM36.3635 18.2364H41.77V15.6909H36.3635V18.2364ZM40.522 16.714L37.3147 32.7504L39.8107 33.2496L43.018 17.2132L40.522 16.714ZM38.5627 31.7273H33.1562V34.2727H38.5627V31.7273ZM34.4042 33.2496L37.6115 17.2132L35.1154 16.714L31.9082 32.7504L34.4042 33.2496ZM59.9051 18.3611L60.6954 17.3635L59.9051 18.3611ZM60.6611 25.8295L59.5972 25.1308L59.5899 25.142L60.6611 25.8295ZM57.8203 28.212L57.2915 27.0543L57.2861 27.0568L57.8203 28.212ZM50.7872 29.0596V27.7869H49.7415L49.5387 28.8128L50.7872 29.0596ZM50.0083 33V34.2727H51.0541L51.2569 33.2468L50.0083 33ZM44.6018 33L43.3538 32.7504L43.0493 34.2727H44.6018V33ZM47.8091 16.9636V15.6909H46.7657L46.561 16.714L47.8091 16.9636ZM55.5752 24.3404L56.4208 25.2916L56.4305 25.283L56.4399 25.2742L55.5752 24.3404ZM52.368 21.1331V19.8604H51.3258L51.1202 20.882L52.368 21.1331ZM51.612 24.8902L50.3642 24.6391L50.0576 26.1629H51.612V24.8902ZM54.9338 18.2364C56.9041 18.2364 58.2419 18.6672 59.1147 19.3587L60.6954 17.3635C59.2162 16.1917 57.2398 15.6909 54.9338 15.6909V18.2364ZM59.1147 19.3587C59.9468 20.0179 60.3963 20.9344 60.3963 22.2785H62.9418C62.9418 20.2627 62.2153 18.5676 60.6954 17.3635L59.1147 19.3587ZM60.3963 22.2785C60.3963 23.3996 60.1197 24.3352 59.5972 25.1308L61.7249 26.5281C62.5464 25.2771 62.9418 23.8455 62.9418 22.2785H60.3963ZM59.5899 25.142C59.0804 25.936 58.3337 26.5783 57.2915 27.0543L58.3491 29.3697C59.7812 28.7155 60.9283 27.7695 61.7322 26.5169L59.5899 25.142ZM57.2861 27.0568C56.2622 27.5304 55.0304 27.7869 53.5592 27.7869V30.3324C55.3259 30.3324 56.9349 30.0238 58.3546 29.3672L57.2861 27.0568ZM53.5592 27.7869H50.7872V30.3324H53.5592V27.7869ZM49.5387 28.8128L48.7598 32.7532L51.2569 33.2468L52.0358 29.3064L49.5387 28.8128ZM50.0083 31.7273H44.6018V34.2727H50.0083V31.7273ZM45.8498 33.2496L49.0571 17.2132L46.561 16.714L43.3538 32.7504L45.8498 33.2496ZM47.8091 18.2364H54.9338V15.6909H47.8091V18.2364ZM53.8341 26.1629C54.7821 26.1629 55.7034 25.9293 56.4208 25.2916L54.7297 23.3891C54.6223 23.4846 54.3829 23.6175 53.8341 23.6175V26.1629ZM56.4399 25.2742C57.163 24.6048 57.4665 23.7109 57.4665 22.7596H54.9211C54.9211 23.1524 54.8122 23.3123 54.7105 23.4065L56.4399 25.2742ZM57.4665 22.7596C57.4665 21.9403 57.1992 21.1222 56.489 20.5492C55.831 20.0183 54.9877 19.8604 54.1778 19.8604V22.4058C54.7119 22.4058 54.8766 22.519 54.8906 22.5303C54.893 22.5322 54.8914 22.5312 54.889 22.5279C54.8867 22.5248 54.888 22.5255 54.8915 22.534C54.8989 22.5519 54.9211 22.6177 54.9211 22.7596H57.4665ZM54.1778 19.8604H52.368V22.4058H54.1778V19.8604ZM51.1202 20.882L50.3642 24.6391L52.8597 25.1412L53.6157 21.3842L51.1202 20.882ZM51.612 26.1629H53.8341V23.6175H51.612V26.1629Z" fill="url(#paint1_linear_38_371)"/>
</g>
</g>
<defs>
<filter id="filter0_dd_38_371" x="12.1354" y="12.0772" width="69.7293" height="55.3879" filterUnits="userSpaceOnUse" color-interpolation-filters="sRGB">
<feFlood flood-opacity="0" result="BackgroundImageFix"/>
<feColorMatrix in="SourceAlpha" type="matrix" values="0 0 0 0 0 0 0 0 0 0 0 0 0 0 0 0 0 0 127 0" result="hardAlpha"/>
<feOffset dy="3.68109"/>
<feGaussianBlur stdDeviation="2.20865"/>
<feColorMatrix type="matrix" values="0 0 0 0 1 0 0 0 0 0.321569 0 0 0 0 0.321569 0 0 0 0.205563 0"/>
<feBlend mode="normal" in2="BackgroundImageFix" result="effect1_dropShadow_38_371"/>
<feColorMatrix in="SourceAlpha" type="matrix" values="0 0 0 0 0 0 0 0 0 0 0 0 0 0 0 0 0 0 127 0" result="hardAlpha"/>
<feOffset dy="10.1777"/>
<feGaussianBlur stdDeviation="6.10664"/>
<feColorMatrix type="matrix" values="0 0 0 0 1 0 0 0 0 0.321569 0 0 0 0 0.321569 0 0 0 0.295 0"/>
<feBlend mode="normal" in2="effect1_dropShadow_38_371" result="effect2_dropShadow_38_371"/>
<feBlend mode="normal" in="SourceGraphic" in2="effect2_dropShadow_38_371" result="shape"/>
</filter>
<filter id="filter1_bd_38_371" x="18.5428" y="8.30696" width="56.9144" height="45.4759" filterUnits="userSpaceOnUse" color-interpolation-filters="sRGB">
<feFlood flood-opacity="0" result="BackgroundImageFix"/>
<feGaussianBlur in="BackgroundImage" stdDeviation="2.90292"/>
<feComposite in2="SourceAlpha" operator="in" result="effect1_backgroundBlur_38_371"/>
<feColorMatrix in="SourceAlpha" type="matrix" values="0 0 0 0 0 0 0 0 0 0 0 0 0 0 0 0 0 0 127 0" result="hardAlpha"/>
<feOffset dy="2.90292"/>
<feGaussianBlur stdDeviation="2.90292"/>
<feComposite in2="hardAlpha" operator="out"/>
<feColorMatrix type="matrix" values="0 0 0 0 0.733333 0 0 0 0 0.558006 0 0 0 0 0.502639 0 0 0 0.21 0"/>
<feBlend mode="normal" in2="effect1_backgroundBlur_38_371" result="effect2_dropShadow_38_371"/>
<feBlend mode="normal" in="SourceGraphic" in2="effect2_dropShadow_38_371" result="shape"/>
</filter>
<filter id="filter2_ddd_38_371" x="-2.50814" y="0.943277" width="80.1974" height="48.0771" filterUnits="userSpaceOnUse" color-interpolation-filters="sRGB">
<feFlood flood-opacity="0" result="BackgroundImageFix"/>
<feColorMatrix in="SourceAlpha" type="matrix" values="0 0 0 0 0 0 0 0 0 0 0 0 0 0 0 0 0 0 127 0" result="hardAlpha"/>
<feOffset/>
<feGaussianBlur stdDeviation="0.333757"/>
<feColorMatrix type="matrix" values="0 0 0 0 0.996078 0 0 0 0 0.820392 0 0 0 0 0.745098 0 0 0 1 0"/>
<feBlend mode="normal" in2="BackgroundImageFix" result="effect1_dropShadow_38_371"/>
<feColorMatrix in="SourceAlpha" type="matrix" values="0 0 0 0 0 0 0 0 0 0 0 0 0 0 0 0 0 0 127 0" result="hardAlpha"/>
<feOffset/>
<feGaussianBlur stdDeviation="0.667514"/>
<feColorMatrix type="matrix" values="0 0 0 0 0.996078 0 0 0 0 0.910745 0 0 0 0 0.745098 0 0 0 1 0"/>
<feBlend mode="normal" in2="effect1_dropShadow_38_371" result="effect2_dropShadow_38_371"/>
<feColorMatrix in="SourceAlpha" type="matrix" values="0 0 0 0 0 0 0 0 0 0 0 0 0 0 0 0 0 0 127 0" result="hardAlpha"/>
<feOffset/>
<feGaussianBlur stdDeviation="8.01017"/>
<feColorMatrix type="matrix" values="0 0 0 0 0.996078 0 0 0 0 0.925804 0 0 0 0 0.745098 0 0 0 0.58 0"/>
<feBlend mode="normal" in2="effect2_dropShadow_38_371" result="effect3_dropShadow_38_371"/>
<feBlend mode="normal" in="SourceGraphic" in2="effect3_dropShadow_38_371" result="shape"/>
</filter>
<linearGradient id="paint0_linear_38_371" x1="63.4909" y1="12.456" x2="26.1054" y2="35.4028" gradientUnits="userSpaceOnUse">
<stop stop-color="#DC5AE0"/>
<stop offset="1" stop-color="#FF547D"/>
</linearGradient>
<linearGradient id="paint1_linear_38_371" x1="37" y1="11" x2="54.5" y2="36.5" gradientUnits="userSpaceOnUse">
<stop stop-color="white"/>
<stop offset="1" stop-color="white" stop-opacity="0"/>
</linearGradient>
<clipPath id="clip0_38_371">
<rect width="90" height="75" fill="white"/>
</clipPath>
</defs>
</svg>
